<svg id="visual" viewBox="0 0 900 600" width="900" height="600" xmlns="http://www.w3.org/2000/svg" xmlns:xlink="http://www.w3.org/1999/xlink" version="1.1"><path d="M0 520L25 523.5C50 527 100 534 150 535.8C200 537.7 250 534.3 300 523.7C350 513 400 495 450 495.3C500 495.7 550 514.3 600 519.5C650 524.7 700 516.3 750 513.2C800 510 850 512 875 513L900 514L900 601L875 601C850 601 800 601 750 601C700 601 650 601 600 601C550 601 500 601 450 601C400 601 350 601 300 601C250 601 200 601 150 601C100 601 50 601 25 601L0 601Z" fill="#FFFFFF" stroke-linecap="round" stroke-linejoin="miter"></path></svg>