<svg id="visual" viewBox="0 0 900 600" width="900" height="600" xmlns="http://www.w3.org/2000/svg" xmlns:xlink="http://www.w3.org/1999/xlink" version="1.1"><path d="M0 473L21.5 478.2C43 483.3 86 493.7 128.8 500.3C171.7 507 214.3 510 257.2 505.5C300 501 343 489 385.8 489.2C428.7 489.3 471.3 501.7 514.2 496.5C557 491.3 600 468.7 642.8 459C685.7 449.3 728.3 452.7 771.2 461.5C814 470.3 857 484.7 878.5 491.8L900 499L900 601L878.5 601C857 601 814 601 771.2 601C728.3 601 685.7 601 642.8 601C600 601 557 601 514.2 601C471.3 601 428.7 601 385.8 601C343 601 300 601 257.2 601C214.3 601 171.7 601 128.8 601C86 601 43 601 21.5 601L0 601Z" fill="#FFFFFF" stroke-linecap="round" stroke-linejoin="miter"></path></svg>