<svg id="visual" viewBox="0 0 900 600" width="900" height="600" xmlns="http://www.w3.org/2000/svg" xmlns:xlink="http://www.w3.org/1999/xlink" version="1.1"><path d="M0 68L25 70.5C50 73 100 78 150 77.8C200 77.7 250 72.3 300 65.5C350 58.7 400 50.3 450 60.8C500 71.3 550 100.7 600 101C650 101.3 700 72.7 750 58.8C800 45 850 46 875 46.5L900 47L900 0L875 0C850 0 800 0 750 0C700 0 650 0 600 0C550 0 500 0 450 0C400 0 350 0 300 0C250 0 200 0 150 0C100 0 50 0 25 0L0 0Z" fill="#FFFFFF" stroke-linecap="round" stroke-linejoin="miter"></path></svg>