<svg id="visual" viewBox="0 0 900 600" width="900" height="600" xmlns="http://www.w3.org/2000/svg" xmlns:xlink="http://www.w3.org/1999/xlink" version="1.1"><path d="M0 504L21.5 508C43 512 86 520 128.8 525C171.7 530 214.3 532 257.2 528.7C300 525.3 343 516.7 385.8 516.8C428.7 517 471.3 526 514.2 522C557 518 600 501 642.8 493.8C685.7 486.7 728.3 489.3 771.2 496C814 502.7 857 513.3 878.5 518.7L900 524L900 601L878.5 601C857 601 814 601 771.2 601C728.3 601 685.7 601 642.8 601C600 601 557 601 514.2 601C471.3 601 428.7 601 385.8 601C343 601 300 601 257.2 601C214.3 601 171.7 601 128.8 601C86 601 43 601 21.5 601L0 601Z" fill="#FFFFFF" stroke-linecap="round" stroke-linejoin="miter"></path></svg>